<svg width="39" height="44" viewBox="0 0 39 44" fill="none" xmlns="http://www.w3.org/2000/svg">
<path d="M33.1111 20.0555H5.88889C3.74111 20.0555 2 21.7967 2 23.9444V37.5555C2 39.7033 3.74111 41.4444 5.88889 41.4444H33.1111C35.2589 41.4444 37 39.7033 37 37.5555V23.9444C37 21.7967 35.2589 20.0555 33.1111 20.0555Z" stroke="#4B4B4B" stroke-width="4" stroke-linecap="round" stroke-linejoin="round"/>
<path d="M9.77783 20.0555V12.2778C9.77783 9.69927 10.8021 7.22639 12.6254 5.40311C14.4487 3.57984 16.9216 2.55554 19.5001 2.55554C22.0785 2.55554 24.5514 3.57984 26.3747 5.40311C28.198 7.22639 29.2223 9.69927 29.2223 12.2778V20.0555" stroke="#4B4B4B" stroke-width="4" stroke-linecap="round" stroke-linejoin="round"/>
</svg>
