<svg width="50" height="50" viewBox="0 0 50 50" fill="none" xmlns="http://www.w3.org/2000/svg">
<g clip-path="url(#clip0_390_528)">
<path d="M40.7784 26.3351C40.7535 22.2519 42.824 19.17 47.0149 16.9003C44.67 13.9074 41.1276 12.2608 36.4503 11.9381C32.0223 11.6266 27.1828 14.2412 25.4116 14.2412C23.5407 14.2412 19.2499 12.0494 15.8822 12.0494C8.92227 12.1495 1.52576 17.0004 1.52576 26.8692C1.52576 29.7842 2.12446 32.7956 3.32187 35.9034C4.91842 39.9866 10.681 50 16.693 49.8331C19.8362 49.7664 22.0564 47.8416 26.1475 47.8416C30.114 47.8416 32.172 49.8331 35.6769 49.8331C41.7388 49.7552 46.9525 40.6542 48.4743 36.5599C40.3418 33.1442 40.7784 26.5465 40.7784 26.3351ZM33.7187 8.06631C37.1238 4.4615 36.812 1.17935 36.7122 0C33.7062 0.155763 30.2262 1.82466 28.243 3.88296C26.0602 6.08589 24.7755 8.81175 25.0499 11.8825C28.3054 12.105 31.2739 10.6142 33.7187 8.06631Z" fill="#2C2B2B"/>
</g>
<defs>
<clipPath id="clip0_390_528">
<rect width="50" height="50" fill="white"/>
</clipPath>
</defs>
</svg>
